<svg width="464" height="512" viewBox="0 0 464 512" fill="none" xmlns="http://www.w3.org/2000/svg">
<g clip-path="url(#clip0_215_2)">
<path d="M233.571 112.032C151.584 110.557 120.839 179.515 119.975 227.507C119.112 275.499 133.275 297.758 173.618 358.993C213.962 420.229 233.5 510 233.5 510C233.5 510 250.981 422.896 285.1 360.999C319.219 299.103 342.112 277.512 342.939 231.519C343.767 185.526 315.558 113.507 233.571 112.032Z" fill="#2265DE" stroke="#121D30" stroke-width="4"/>
<circle cx="230" cy="240" r="54.5" fill="white" stroke="#121D30" stroke-width="3"/>
<path fill-rule="evenodd" clip-rule="evenodd" d="M173.619 95.0625L208.175 67.2547L226.263 55.0175C228.012 53.8349 229.952 52.9093 232.015 52.2739L241.747 49.2764C242.27 49.1153 243.055 48.8736 243.799 48.6444C245.03 48.2653 245.881 47.1428 245.915 45.8552C245.932 45.1744 245.95 44.4847 245.962 44.0415L245.99 42.9413C246.013 42.0555 246.426 41.2251 247.119 40.6728L248.082 39.9051L255.807 33.7467C259.132 31.0961 266.165 27.0369 268.61 25.65C269.169 25.3329 269.811 25.2105 270.448 25.2965C273.187 25.6659 280.993 26.7518 285.083 27.6594L285.38 27.7255C306.11 32.3255 331.093 37.869 371.059 68.233C390.161 82.7448 408.737 106.453 419.156 121.565C420.334 123.274 422.308 126.596 423.129 127.99C423.377 128.411 423.515 128.883 423.531 129.371C423.59 131.191 423.706 135.935 423.429 138.632L413.943 231.227C413.848 232.162 414.969 232.795 415.838 232.297C416.192 232.094 416.634 232.068 417.015 232.228L422.079 234.364C422.382 234.492 422.668 234.652 422.93 234.842C424.664 236.097 427.16 235.911 428.635 234.418L430.908 232.118C431.263 231.759 431.773 231.56 432.303 231.574C433.308 231.6 434.102 232.364 434.079 233.282L434.006 236.072C433.954 238.078 435.692 239.749 437.887 239.806L439.872 239.857C440.53 239.874 441.113 239.481 441.288 238.902C441.583 237.923 442.937 237.617 443.706 238.357L444.519 239.139C445.068 239.667 445.245 240.432 444.975 241.114L444.39 242.597C443.962 243.683 444.826 244.838 446.091 244.871C447.114 244.897 447.924 245.677 447.9 246.612L447.766 251.789C447.749 252.458 448.329 253.017 449.062 253.036C449.795 253.055 450.375 253.613 450.357 254.282L450.18 261.152C450.145 262.491 451.305 263.608 452.771 263.646C454.237 263.684 455.398 264.8 455.363 266.139L455.191 272.802C455.155 274.167 455.968 275.437 457.289 276.083C459.669 277.245 460.114 280.192 458.165 281.882L456.097 283.675C455.891 283.854 455.672 284.019 455.44 284.168L451.878 286.476C449.804 287.819 448.549 289.979 448.489 292.305C448.455 293.591 448.79 294.864 449.46 295.999L451.831 300.017L453.328 302.929C453.452 303.17 453.513 303.434 453.506 303.699C453.479 304.757 452.418 305.535 451.28 305.331L449.539 305.02C448.66 304.863 447.883 304.393 447.38 303.714L445.829 301.621C444.631 300.004 442.572 299.102 440.448 299.262L439.624 299.324C437.434 299.489 435.649 301.001 435.287 302.98C435.029 304.389 434.028 305.599 432.612 306.202C430.755 306.993 428.546 306.607 427.129 305.244L426.884 305.008C425.806 303.971 424.281 303.423 422.723 303.512L416.833 303.848C415.899 303.901 414.96 303.887 414.027 303.806L402.178 302.776L400.832 302.565C397.787 302.087 395.147 300.353 393.679 297.865C392.977 296.675 391.996 295.641 390.807 294.837L387.877 292.855C385.326 291.129 383.571 288.596 382.957 285.755C382.545 283.85 381.617 282.068 380.257 280.573L377.658 277.715C376.77 276.739 376.178 275.569 375.938 274.322C375.668 272.913 374.947 271.607 373.868 270.569L371.987 268.759C370.379 267.213 369.507 265.149 369.562 263.022L369.614 261.026C369.658 259.322 370.718 257.78 372.377 257.006L375.427 255.583C377.339 254.692 377.573 252.28 375.864 251.08C373.754 249.598 374.706 246.53 377.348 246.297L380.742 245.998C382.501 245.843 383.638 244.235 383.074 242.703L383.022 242.562C382.246 240.455 384.68 238.576 386.827 239.624C388.742 240.56 391.01 239.149 390.754 237.182L390.693 236.711C390.645 236.345 390.517 235.992 390.315 235.673L374.345 210.412C372.831 208.017 370.066 206.509 367.047 206.431C364.517 206.366 362.086 207.313 360.394 209.026L359.96 209.466C358.465 210.978 356.319 211.815 354.084 211.757L352.242 211.71C350.634 211.668 349.129 212.417 348.299 213.671C347.01 215.618 344.226 216.221 342.093 215.029C328.355 207.352 307.469 194.45 283.73 182.754C259.992 171.058 229.978 163.443 218.389 161.082C206.8 158.721 172.891 151.59 171.306 151.326L155.436 149.869C153.876 149.587 151.133 149.767 148.824 150.011C146.819 150.223 145.082 148.517 145.337 146.517C145.683 143.811 146.075 140.513 146.107 139.248L146.296 131.974C146.358 129.55 146.546 122.275 148.4 119.088C149.627 116.977 151.902 114.42 153.645 112.786C154.884 111.625 156.613 111.213 158.391 111.259L159.37 111.284C161.183 111.331 164.443 111.415 166.846 111.478C168.503 111.52 169.878 110.214 169.921 108.557C169.979 106.307 170.055 103.384 170.091 101.987C170.16 99.3267 171.438 96.8176 173.619 95.0625ZM226.125 76.4278C225.805 76.5438 225.506 76.7137 225.243 76.9302L195.762 101.139C193.878 102.686 194.535 105.689 196.91 106.238C200.914 107.163 205.117 108.003 209.591 108.898C228.65 112.709 252.622 117.502 287.018 133.997C323.539 151.51 344.558 165.682 357.384 176.17C358.095 176.751 358.49 177.63 358.467 178.548L358.289 185.41C358.246 187.067 359.554 188.444 361.211 188.487L372.734 188.785C374.085 188.82 375.244 189.754 375.701 191.026C377.88 197.087 383.35 207.138 385.117 209.325L385.122 209.331C391.676 217.444 394.944 221.49 398.11 224.627C399.818 226.319 402.599 225.14 402.796 222.744L410.446 130.038C410.511 129.244 410.265 128.463 409.747 127.857C399 115.26 374.939 87.9701 353.28 71.0082C331.604 54.0336 292.191 45.0184 273.897 42.4134C273.046 42.2922 272.198 42.5529 271.549 43.1159L258.172 54.715C257.536 55.2671 257.16 56.0616 257.139 56.904L256.975 63.234C256.943 64.4684 256.158 65.5571 254.997 65.9773L226.125 76.4278ZM345.374 179.147C346.333 179.694 346.901 180.717 346.872 181.82L346.387 200.582C346.326 202.916 343.747 204.313 341.748 203.106C323.164 191.886 281.725 169.694 253.57 160.63C216.266 148.621 171.823 143.797 152.494 142.717C150.858 142.625 149.59 141.26 149.655 139.623C149.83 135.194 150.29 128.646 151.792 124.837C152.659 122.64 155.077 117.775 157.547 115.778C157.975 115.431 158.528 115.306 159.078 115.32L194.298 116.232C194.441 116.235 194.576 116.248 194.717 116.272C211.587 119.172 251.681 128.447 278.825 142.682C304.92 156.366 333.072 172.131 345.374 179.147ZM383.591 268.326C384.227 243.756 405.58 239.717 417.944 240.908C432.958 242.354 447.76 252.031 447.275 270.783C446.752 290.989 428.868 297.805 419.135 297.553C418.59 297.539 417.975 297.532 417.3 297.525C407.01 297.413 382.845 297.149 383.591 268.326Z" fill="#05255F"/>
<path fill-rule="evenodd" clip-rule="evenodd" d="M173.619 95.0625L208.175 67.2547L226.263 55.0175C228.012 53.8349 229.952 52.9093 232.015 52.2739L241.747 49.2764C242.27 49.1153 243.055 48.8736 243.799 48.6444C245.03 48.2653 245.881 47.1428 245.915 45.8552C245.932 45.1744 245.95 44.4847 245.962 44.0415L245.99 42.9413C246.013 42.0555 246.426 41.2251 247.119 40.6728L248.082 39.9051L255.807 33.7467C259.132 31.0961 266.165 27.0369 268.61 25.65C269.169 25.3329 269.811 25.2105 270.448 25.2965C273.187 25.6659 280.993 26.7518 285.083 27.6594L285.38 27.7255C306.11 32.3255 331.093 37.869 371.059 68.233C390.161 82.7448 408.737 106.453 419.156 121.565C420.334 123.274 422.308 126.596 423.129 127.99C423.377 128.411 423.515 128.883 423.531 129.371C423.59 131.191 423.706 135.935 423.429 138.632L413.943 231.227C413.848 232.162 414.969 232.795 415.838 232.297C416.192 232.094 416.634 232.068 417.015 232.228L422.079 234.364C422.382 234.492 422.668 234.652 422.93 234.842C424.664 236.097 427.16 235.911 428.635 234.418L430.908 232.118C431.263 231.759 431.773 231.56 432.303 231.574C433.308 231.6 434.102 232.364 434.079 233.282L434.006 236.072C433.954 238.078 435.692 239.749 437.887 239.806L439.872 239.857C440.53 239.874 441.113 239.481 441.288 238.902C441.583 237.923 442.937 237.617 443.706 238.357L444.519 239.139C445.068 239.667 445.245 240.432 444.975 241.114L444.39 242.597C443.962 243.683 444.826 244.838 446.091 244.871C447.114 244.897 447.924 245.677 447.9 246.612L447.766 251.789C447.749 252.458 448.329 253.017 449.062 253.036C449.795 253.055 450.375 253.613 450.357 254.282L450.18 261.152C450.145 262.491 451.305 263.608 452.771 263.646C454.237 263.684 455.398 264.8 455.363 266.139L455.191 272.802C455.155 274.167 455.968 275.437 457.289 276.083C459.669 277.245 460.114 280.192 458.165 281.882L456.097 283.675C455.891 283.854 455.672 284.019 455.44 284.168L451.878 286.476C449.804 287.819 448.549 289.979 448.489 292.305C448.455 293.591 448.79 294.864 449.46 295.999L451.831 300.017L453.328 302.929C453.452 303.17 453.513 303.434 453.506 303.699C453.479 304.757 452.418 305.535 451.28 305.331L449.539 305.02C448.66 304.863 447.883 304.393 447.38 303.714L445.829 301.621C444.631 300.004 442.572 299.102 440.448 299.262L439.624 299.324C437.434 299.489 435.649 301.001 435.287 302.98C435.029 304.389 434.028 305.599 432.612 306.202C430.755 306.993 428.546 306.607 427.129 305.244L426.884 305.008C425.806 303.971 424.281 303.423 422.723 303.512L416.833 303.848C415.899 303.901 414.96 303.887 414.027 303.806L402.178 302.776L400.832 302.565C397.787 302.087 395.147 300.353 393.679 297.865C392.977 296.675 391.996 295.641 390.807 294.837L387.877 292.855C385.326 291.129 383.571 288.596 382.957 285.755C382.545 283.85 381.617 282.068 380.257 280.573L377.658 277.715C376.77 276.739 376.178 275.569 375.938 274.322C375.668 272.913 374.947 271.607 373.868 270.569L371.987 268.759C370.379 267.213 369.507 265.149 369.562 263.022L369.614 261.026C369.658 259.322 370.718 257.78 372.377 257.006L375.427 255.583C377.339 254.692 377.573 252.28 375.864 251.08C373.754 249.598 374.706 246.53 377.348 246.297L380.742 245.998C382.501 245.843 383.638 244.235 383.074 242.703L383.022 242.562C382.246 240.455 384.68 238.576 386.827 239.624C388.742 240.56 391.01 239.149 390.754 237.182L390.693 236.711C390.645 236.345 390.517 235.992 390.315 235.673L374.345 210.412C372.831 208.017 370.066 206.509 367.047 206.431C364.517 206.366 362.086 207.313 360.394 209.026L359.96 209.466C358.465 210.978 356.319 211.815 354.084 211.757L352.242 211.71C350.634 211.668 349.129 212.417 348.299 213.671C347.01 215.618 344.226 216.221 342.093 215.029C328.355 207.352 307.469 194.45 283.73 182.754C259.992 171.058 229.978 163.443 218.389 161.082C206.8 158.721 172.891 151.59 171.306 151.326L155.436 149.869C153.876 149.587 151.133 149.767 148.824 150.011C146.819 150.223 145.082 148.517 145.337 146.517C145.683 143.811 146.075 140.513 146.107 139.248L146.296 131.974C146.358 129.55 146.546 122.275 148.4 119.088C149.627 116.977 151.902 114.42 153.645 112.786C154.884 111.625 156.613 111.213 158.391 111.259L159.37 111.284C161.183 111.331 164.443 111.415 166.846 111.478C168.503 111.52 169.878 110.214 169.921 108.557C169.979 106.307 170.055 103.384 170.091 101.987C170.16 99.3267 171.438 96.8176 173.619 95.0625ZM226.125 76.4278C225.805 76.5438 225.506 76.7137 225.243 76.9302L195.762 101.139C193.878 102.686 194.535 105.689 196.91 106.238C200.914 107.163 205.117 108.003 209.591 108.898C228.65 112.709 252.622 117.502 287.018 133.997C323.539 151.51 344.558 165.682 357.384 176.17C358.095 176.751 358.49 177.63 358.467 178.548L358.289 185.41C358.246 187.067 359.554 188.444 361.211 188.487L372.734 188.785C374.085 188.82 375.244 189.754 375.701 191.026C377.88 197.087 383.35 207.138 385.117 209.325L385.122 209.331C391.676 217.444 394.944 221.49 398.11 224.627C399.818 226.319 402.599 225.14 402.796 222.744L410.446 130.038C410.511 129.244 410.265 128.463 409.747 127.857C399 115.26 374.939 87.9701 353.28 71.0082C331.604 54.0336 292.191 45.0184 273.897 42.4134C273.046 42.2922 272.198 42.5529 271.549 43.1159L258.172 54.715C257.536 55.2671 257.16 56.0616 257.139 56.904L256.975 63.234C256.943 64.4684 256.158 65.5571 254.997 65.9773L226.125 76.4278ZM345.374 179.147C346.333 179.694 346.901 180.717 346.872 181.82L346.387 200.582C346.326 202.916 343.747 204.313 341.748 203.106C323.164 191.886 281.725 169.694 253.57 160.63C216.266 148.621 171.823 143.797 152.494 142.717C150.858 142.625 149.59 141.26 149.655 139.623C149.83 135.194 150.29 128.646 151.792 124.837C152.659 122.64 155.077 117.775 157.547 115.778C157.975 115.431 158.528 115.306 159.078 115.32L194.298 116.232C194.441 116.235 194.576 116.248 194.717 116.272C211.587 119.172 251.681 128.447 278.825 142.682C304.92 156.366 333.072 172.131 345.374 179.147ZM383.591 268.326C384.227 243.756 405.58 239.717 417.944 240.908C432.958 242.354 447.76 252.031 447.275 270.783C446.752 290.989 428.868 297.805 419.135 297.553C418.59 297.539 417.975 297.532 417.3 297.525C407.01 297.413 382.845 297.149 383.591 268.326Z" fill="black" fill-opacity="0.2"/>
<path d="M196.91 106.238C194.535 105.689 193.878 102.686 195.762 101.139L225.243 76.9302C225.506 76.7137 225.805 76.5438 226.125 76.4278L254.997 65.9773C256.158 65.5571 256.943 64.4684 256.975 63.234L257.139 56.904C257.16 56.0616 257.536 55.2671 258.172 54.715L271.549 43.1159C272.198 42.5529 273.046 42.2922 273.897 42.4134C292.191 45.0184 331.604 54.0336 353.28 71.0082C374.939 87.9701 399 115.26 409.747 127.857C410.265 128.463 410.511 129.244 410.446 130.038L402.796 222.744C402.599 225.14 399.818 226.319 398.11 224.627C394.944 221.49 391.676 217.444 385.122 209.331L385.117 209.325C383.35 207.138 377.88 197.087 375.701 191.026C375.244 189.754 374.085 188.82 372.734 188.785L361.211 188.487C359.554 188.444 358.246 187.067 358.289 185.41L358.467 178.548C358.49 177.63 358.095 176.751 357.384 176.17C344.558 165.682 323.539 151.51 287.018 133.997C252.622 117.502 228.65 112.709 209.591 108.898C205.117 108.003 200.914 107.163 196.91 106.238Z" fill="#05255F"/>
<path d="M196.91 106.238C194.535 105.689 193.878 102.686 195.762 101.139L225.243 76.9302C225.506 76.7137 225.805 76.5438 226.125 76.4278L254.997 65.9773C256.158 65.5571 256.943 64.4684 256.975 63.234L257.139 56.904C257.16 56.0616 257.536 55.2671 258.172 54.715L271.549 43.1159C272.198 42.5529 273.046 42.2922 273.897 42.4134C292.191 45.0184 331.604 54.0336 353.28 71.0082C374.939 87.9701 399 115.26 409.747 127.857C410.265 128.463 410.511 129.244 410.446 130.038L402.796 222.744C402.599 225.14 399.818 226.319 398.11 224.627C394.944 221.49 391.676 217.444 385.122 209.331L385.117 209.325C383.35 207.138 377.88 197.087 375.701 191.026C375.244 189.754 374.085 188.82 372.734 188.785L361.211 188.487C359.554 188.444 358.246 187.067 358.289 185.41L358.467 178.548C358.49 177.63 358.095 176.751 357.384 176.17C344.558 165.682 323.539 151.51 287.018 133.997C252.622 117.502 228.65 112.709 209.591 108.898C205.117 108.003 200.914 107.163 196.91 106.238Z" fill="white"/>
<path d="M345.374 179.147C346.333 179.694 346.901 180.717 346.872 181.82L346.387 200.582C346.326 202.916 343.747 204.313 341.748 203.106C323.164 191.886 281.725 169.694 253.57 160.63C216.266 148.621 171.823 143.797 152.494 142.717C150.858 142.625 149.59 141.26 149.655 139.623C149.83 135.194 150.29 128.646 151.792 124.837C152.659 122.64 155.077 117.775 157.547 115.778C157.975 115.431 158.528 115.306 159.078 115.32L194.298 116.232C194.441 116.235 194.576 116.248 194.717 116.272C211.587 119.172 251.681 128.447 278.825 142.682C304.92 156.366 333.072 172.131 345.374 179.147Z" fill="#05255F"/>
<path d="M345.374 179.147C346.333 179.694 346.901 180.717 346.872 181.82L346.387 200.582C346.326 202.916 343.747 204.313 341.748 203.106C323.164 191.886 281.725 169.694 253.57 160.63C216.266 148.621 171.823 143.797 152.494 142.717C150.858 142.625 149.59 141.26 149.655 139.623C149.83 135.194 150.29 128.646 151.792 124.837C152.659 122.64 155.077 117.775 157.547 115.778C157.975 115.431 158.528 115.306 159.078 115.32L194.298 116.232C194.441 116.235 194.576 116.248 194.717 116.272C211.587 119.172 251.681 128.447 278.825 142.682C304.92 156.366 333.072 172.131 345.374 179.147Z" fill="white"/>
<path d="M417.944 240.908C405.58 239.717 384.227 243.756 383.591 268.326C382.845 297.149 407.01 297.413 417.3 297.525C417.975 297.532 418.59 297.539 419.135 297.553C428.868 297.805 446.752 290.989 447.275 270.783C447.76 252.031 432.958 242.354 417.944 240.908Z" fill="#05255F"/>
<path d="M417.944 240.908C405.58 239.717 384.227 243.756 383.591 268.326C382.845 297.149 407.01 297.413 417.3 297.525C417.975 297.532 418.59 297.539 419.135 297.553C428.868 297.805 446.752 290.989 447.275 270.783C447.76 252.031 432.958 242.354 417.944 240.908Z" fill="white"/>
</g>
<defs>
<clipPath id="clip0_215_2">
<rect width="464" height="512" fill="white" transform="matrix(-1 0 0 1 464 0)"/>
</clipPath>
</defs>
</svg>
