<svg width="358" height="358" viewBox="0 0 358 358" fill="none" xmlns="http://www.w3.org/2000/svg">
<g clip-path="url(#clip0_289_3)">
<circle cx="179" cy="179" r="179" fill="#5692ED" fill-opacity="0.33"/>
<circle cx="178.5" cy="179.5" r="149.5" fill="white"/>
<path fill-rule="evenodd" clip-rule="evenodd" d="M42.6029 139.459L74.2327 108.363L91.019 94.3933C92.6412 93.0433 94.4803 91.9299 96.47 91.0933L105.857 87.1459C106.362 86.9338 107.119 86.6155 107.836 86.3137C109.024 85.8145 109.76 84.6131 109.665 83.3285C109.615 82.6493 109.565 81.9613 109.532 81.5191L109.452 80.4215C109.386 79.5378 109.715 78.6705 110.35 78.0523L111.232 77.193L118.309 70.2992C121.355 67.3322 127.951 62.5959 130.247 60.9735C130.772 60.6025 131.398 60.4171 132.041 60.4395C134.803 60.5357 142.678 60.8426 146.837 61.3404L147.14 61.3767C168.224 63.8995 193.632 66.9398 236.412 93.1933C256.857 105.741 277.692 127.491 289.557 141.496C290.899 143.08 293.193 146.189 294.148 147.496C294.436 147.89 294.62 148.345 294.684 148.83C294.923 150.636 295.509 155.344 295.501 158.055L295.239 251.135C295.236 252.075 296.415 252.594 297.23 252.011C297.562 251.774 298 251.705 298.394 251.827L303.645 253.45C303.96 253.547 304.26 253.678 304.539 253.841C306.389 254.918 308.854 254.486 310.174 252.854L312.208 250.34C312.526 249.947 313.013 249.699 313.543 249.66C314.544 249.586 315.411 250.268 315.478 251.184L315.683 253.968C315.83 255.968 317.725 257.459 319.915 257.298L321.895 257.153C322.551 257.105 323.093 256.655 323.209 256.062C323.406 255.058 324.723 254.62 325.561 255.279L326.448 255.977C327.046 256.449 327.298 257.192 327.098 257.898L326.663 259.432C326.344 260.554 327.318 261.618 328.58 261.525C329.601 261.45 330.484 262.145 330.553 263.078L330.933 268.243C330.982 268.911 331.614 269.409 332.346 269.355C333.077 269.302 333.709 269.799 333.758 270.467L334.263 277.321C334.361 278.657 335.626 279.653 337.089 279.546C338.551 279.438 339.816 280.434 339.915 281.77L340.403 288.417C340.504 289.779 341.438 290.962 342.816 291.473C345.3 292.394 346.035 295.282 344.263 297.158L342.383 299.147C342.196 299.345 341.994 299.531 341.778 299.703L338.462 302.352C336.532 303.894 335.496 306.167 335.667 308.488C335.762 309.771 336.221 311.005 337 312.068L339.757 315.831L341.536 318.58C341.683 318.808 341.77 319.064 341.789 319.329C341.867 320.385 340.889 321.263 339.736 321.174L337.973 321.037C337.082 320.967 336.263 320.577 335.695 319.951L333.944 318.022C332.591 316.532 330.453 315.838 328.355 316.208L327.541 316.351C325.379 316.733 323.753 318.414 323.588 320.419C323.471 321.847 322.596 323.15 321.246 323.891C319.476 324.862 317.24 324.697 315.695 323.48L315.428 323.27C314.252 322.345 312.681 321.95 311.139 322.193L305.312 323.111C304.387 323.257 303.452 323.336 302.515 323.348L290.622 323.498L289.262 323.421C286.184 323.247 283.386 321.783 281.678 319.453C280.862 318.339 279.783 317.407 278.52 316.724L275.409 315.042C272.699 313.578 270.701 311.231 269.809 308.465C269.211 306.61 268.11 304.929 266.609 303.576L263.739 300.99C262.759 300.107 262.054 299.002 261.692 297.784C261.283 296.409 260.437 295.181 259.259 294.255L257.208 292.64C255.456 291.261 254.383 289.294 254.227 287.172L254.081 285.181C253.956 283.48 254.857 281.841 256.432 280.906L259.326 279.188C261.14 278.112 261.134 275.689 259.314 274.664C257.068 273.398 257.711 270.251 260.317 269.757L263.665 269.124C265.399 268.795 266.372 267.082 265.658 265.613L265.593 265.478C264.612 263.459 266.848 261.347 269.088 262.178C271.087 262.919 273.203 261.291 272.754 259.358L272.646 258.896C272.563 258.537 272.4 258.198 272.167 257.901L253.772 234.346C252.029 232.114 249.128 230.887 246.116 231.109C243.591 231.294 241.267 232.478 239.753 234.35L239.364 234.831C238.027 236.484 235.974 237.529 233.745 237.693L231.907 237.828C230.303 237.946 228.88 238.84 228.177 240.171C227.088 242.236 224.378 243.112 222.137 242.137C207.706 235.86 185.644 225.091 160.863 215.805C136.082 206.52 105.461 201.916 93.6951 200.716C81.929 199.516 47.4805 195.78 45.8774 195.674L29.9403 195.797C28.3601 195.671 25.6488 196.122 23.3756 196.594C21.4014 197.003 19.5038 195.478 19.5596 193.463C19.6351 190.736 19.6983 187.415 19.6056 186.154L19.0719 178.897C18.894 176.478 18.3603 169.221 19.8885 165.866C20.9007 163.643 22.911 160.873 24.4836 159.075C25.601 157.797 27.2806 157.215 29.0544 157.084L30.031 157.013C31.8396 156.88 35.0925 156.64 37.4899 156.464C39.1423 156.343 40.3818 154.906 40.2603 153.254C40.0952 151.009 39.8807 148.092 39.7783 146.699C39.5831 144.045 40.6065 141.421 42.6029 139.459ZM93.0035 115.712C92.6959 115.859 92.4157 116.058 92.1749 116.299L65.2385 143.31C63.5172 145.036 64.4683 147.96 66.8862 148.271C70.962 148.794 75.2278 149.214 79.7683 149.661C99.112 151.564 123.441 153.958 159.302 166.963C197.379 180.77 219.699 192.789 233.501 201.954C234.266 202.462 234.747 203.297 234.814 204.213L235.318 211.059C235.439 212.712 236.877 213.953 238.53 213.831L250.026 212.986C251.374 212.887 252.619 213.701 253.201 214.922C255.97 220.737 262.409 230.196 264.384 232.197L264.389 232.202C271.715 239.626 275.368 243.329 278.829 246.136C280.697 247.651 283.346 246.202 283.306 243.798L281.73 150.791C281.716 149.994 281.393 149.241 280.818 148.689C268.876 137.22 242.229 112.449 218.995 97.7169C195.743 82.9742 155.631 77.9095 137.168 77.1304C136.31 77.0942 135.492 77.4376 134.902 78.0621L122.741 90.9299C122.162 91.5424 121.867 92.3701 121.929 93.2106L122.394 99.5256C122.484 100.757 121.811 101.918 120.697 102.451L93.0035 115.712ZM221.846 206.107C222.854 206.556 223.52 207.518 223.601 208.618L224.977 227.335C225.149 229.664 222.721 231.31 220.612 230.307C201.008 220.985 157.573 203.009 128.658 196.78C90.3478 188.527 45.6452 188.131 26.3048 188.972C24.6677 189.043 23.2706 187.811 23.1726 186.175C22.9076 181.75 22.7165 175.189 23.8342 171.25C24.479 168.978 26.403 163.897 28.6626 161.665C29.0542 161.278 29.5919 161.098 30.1409 161.058L65.2774 158.474C65.4203 158.464 65.5559 158.463 65.6989 158.473C82.7729 159.686 123.589 164.942 152.01 176.416C179.333 187.448 208.908 200.344 221.846 206.107ZM268.713 291.06C266.91 266.547 287.758 260.412 300.179 260.371C315.263 260.322 330.95 268.485 332.326 287.192C333.809 307.35 316.688 315.906 306.978 316.62C306.435 316.66 305.822 316.714 305.149 316.774C294.899 317.682 270.827 319.814 268.713 291.06Z" fill="#05255F"/>
<path fill-rule="evenodd" clip-rule="evenodd" d="M42.6029 139.459L74.2327 108.363L91.019 94.3933C92.6412 93.0433 94.4803 91.9299 96.47 91.0933L105.857 87.1459C106.362 86.9338 107.119 86.6155 107.836 86.3137C109.024 85.8145 109.76 84.6131 109.665 83.3285C109.615 82.6493 109.565 81.9613 109.532 81.5191L109.452 80.4215C109.386 79.5378 109.715 78.6705 110.35 78.0523L111.232 77.193L118.309 70.2992C121.355 67.3322 127.951 62.5959 130.247 60.9735C130.772 60.6025 131.398 60.4171 132.041 60.4395C134.803 60.5357 142.678 60.8426 146.837 61.3404L147.14 61.3767C168.224 63.8995 193.632 66.9398 236.412 93.1933C256.857 105.741 277.692 127.491 289.557 141.496C290.899 143.08 293.193 146.189 294.148 147.496C294.436 147.89 294.62 148.345 294.684 148.83C294.923 150.636 295.509 155.344 295.501 158.055L295.239 251.135C295.236 252.075 296.415 252.594 297.23 252.011C297.562 251.774 298 251.705 298.394 251.827L303.645 253.45C303.96 253.547 304.26 253.678 304.539 253.841C306.389 254.918 308.854 254.486 310.174 252.854L312.208 250.34C312.526 249.947 313.013 249.699 313.543 249.66C314.544 249.586 315.411 250.268 315.478 251.184L315.683 253.968C315.83 255.968 317.725 257.459 319.915 257.298L321.895 257.153C322.551 257.105 323.093 256.655 323.209 256.062C323.406 255.058 324.723 254.62 325.561 255.279L326.448 255.977C327.046 256.449 327.298 257.192 327.098 257.898L326.663 259.432C326.344 260.554 327.318 261.618 328.58 261.525C329.601 261.45 330.484 262.145 330.553 263.078L330.933 268.243C330.982 268.911 331.614 269.409 332.346 269.355C333.077 269.302 333.709 269.799 333.758 270.467L334.263 277.321C334.361 278.657 335.626 279.653 337.089 279.546C338.551 279.438 339.816 280.434 339.915 281.77L340.403 288.417C340.504 289.779 341.438 290.962 342.816 291.473C345.3 292.394 346.035 295.282 344.263 297.158L342.383 299.147C342.196 299.345 341.994 299.531 341.778 299.703L338.462 302.352C336.532 303.894 335.496 306.167 335.667 308.488C335.762 309.771 336.221 311.005 337 312.068L339.757 315.831L341.536 318.58C341.683 318.808 341.77 319.064 341.789 319.329C341.867 320.385 340.889 321.263 339.736 321.174L337.973 321.037C337.082 320.967 336.263 320.577 335.695 319.951L333.944 318.022C332.591 316.532 330.453 315.838 328.355 316.208L327.541 316.351C325.379 316.733 323.753 318.414 323.588 320.419C323.471 321.847 322.596 323.15 321.246 323.891C319.476 324.862 317.24 324.697 315.695 323.48L315.428 323.27C314.252 322.345 312.681 321.95 311.139 322.193L305.312 323.111C304.387 323.257 303.452 323.336 302.515 323.348L290.622 323.498L289.262 323.421C286.184 323.247 283.386 321.783 281.678 319.453C280.862 318.339 279.783 317.407 278.52 316.724L275.409 315.042C272.699 313.578 270.701 311.231 269.809 308.465C269.211 306.61 268.11 304.929 266.609 303.576L263.739 300.99C262.759 300.107 262.054 299.002 261.692 297.784C261.283 296.409 260.437 295.181 259.259 294.255L257.208 292.64C255.456 291.261 254.383 289.294 254.227 287.172L254.081 285.181C253.956 283.48 254.857 281.841 256.432 280.906L259.326 279.188C261.14 278.112 261.134 275.689 259.314 274.664C257.068 273.398 257.711 270.251 260.317 269.757L263.665 269.124C265.399 268.795 266.372 267.082 265.658 265.613L265.593 265.478C264.612 263.459 266.848 261.347 269.088 262.178C271.087 262.919 273.203 261.291 272.754 259.358L272.646 258.896C272.563 258.537 272.4 258.198 272.167 257.901L253.772 234.346C252.029 232.114 249.128 230.887 246.116 231.109C243.591 231.294 241.267 232.478 239.753 234.35L239.364 234.831C238.027 236.484 235.974 237.529 233.745 237.693L231.907 237.828C230.303 237.946 228.88 238.84 228.177 240.171C227.088 242.236 224.378 243.112 222.137 242.137C207.706 235.86 185.644 225.091 160.863 215.805C136.082 206.52 105.461 201.916 93.6951 200.716C81.929 199.516 47.4805 195.78 45.8774 195.674L29.9403 195.797C28.3601 195.671 25.6488 196.122 23.3756 196.594C21.4014 197.003 19.5038 195.478 19.5596 193.463C19.6351 190.736 19.6983 187.415 19.6056 186.154L19.0719 178.897C18.894 176.478 18.3603 169.221 19.8885 165.866C20.9007 163.643 22.911 160.873 24.4836 159.075C25.601 157.797 27.2806 157.215 29.0544 157.084L30.031 157.013C31.8396 156.88 35.0925 156.64 37.4899 156.464C39.1423 156.343 40.3818 154.906 40.2603 153.254C40.0952 151.009 39.8807 148.092 39.7783 146.699C39.5831 144.045 40.6065 141.421 42.6029 139.459ZM93.0035 115.712C92.6959 115.859 92.4157 116.058 92.1749 116.299L65.2385 143.31C63.5172 145.036 64.4683 147.96 66.8862 148.271C70.962 148.794 75.2278 149.214 79.7683 149.661C99.112 151.564 123.441 153.958 159.302 166.963C197.379 180.77 219.699 192.789 233.501 201.954C234.266 202.462 234.747 203.297 234.814 204.213L235.318 211.059C235.439 212.712 236.877 213.953 238.53 213.831L250.026 212.986C251.374 212.887 252.619 213.701 253.201 214.922C255.97 220.737 262.409 230.196 264.384 232.197L264.389 232.202C271.715 239.626 275.368 243.329 278.829 246.136C280.697 247.651 283.346 246.202 283.306 243.798L281.73 150.791C281.716 149.994 281.393 149.241 280.818 148.689C268.876 137.22 242.229 112.449 218.995 97.7169C195.743 82.9742 155.631 77.9095 137.168 77.1304C136.31 77.0942 135.492 77.4376 134.902 78.0621L122.741 90.9299C122.162 91.5424 121.867 92.3701 121.929 93.2106L122.394 99.5256C122.484 100.757 121.811 101.918 120.697 102.451L93.0035 115.712ZM221.846 206.107C222.854 206.556 223.52 207.518 223.601 208.618L224.977 227.335C225.149 229.664 222.721 231.31 220.612 230.307C201.008 220.985 157.573 203.009 128.658 196.78C90.3478 188.527 45.6452 188.131 26.3048 188.972C24.6677 189.043 23.2706 187.811 23.1726 186.175C22.9076 181.75 22.7165 175.189 23.8342 171.25C24.479 168.978 26.403 163.897 28.6626 161.665C29.0542 161.278 29.5919 161.098 30.1409 161.058L65.2774 158.474C65.4203 158.464 65.5559 158.463 65.6989 158.473C82.7729 159.686 123.589 164.942 152.01 176.416C179.333 187.448 208.908 200.344 221.846 206.107ZM268.713 291.06C266.91 266.547 287.758 260.412 300.179 260.371C315.263 260.322 330.95 268.485 332.326 287.192C333.809 307.35 316.688 315.906 306.978 316.62C306.435 316.66 305.822 316.714 305.149 316.774C294.899 317.682 270.827 319.814 268.713 291.06Z" fill="black" fill-opacity="0.2"/>
<path d="M66.8862 148.271C64.4683 147.96 63.5172 145.036 65.2385 143.31L92.1749 116.299C92.4157 116.058 92.6959 115.859 93.0035 115.712L120.697 102.451C121.811 101.918 122.484 100.757 122.394 99.5256L121.929 93.2106C121.867 92.3701 122.162 91.5424 122.741 90.9299L134.902 78.0621C135.492 77.4376 136.31 77.0942 137.168 77.1304C155.631 77.9095 195.743 82.9742 218.995 97.7169C242.229 112.449 268.876 137.22 280.818 148.689C281.393 149.241 281.716 149.994 281.73 150.791L283.306 243.798C283.346 246.202 280.697 247.651 278.829 246.136C275.368 243.329 271.715 239.626 264.389 232.202L264.384 232.197C262.409 230.196 255.97 220.737 253.201 214.922C252.619 213.701 251.374 212.887 250.026 212.986L238.53 213.831C236.877 213.953 235.439 212.712 235.318 211.059L234.814 204.213C234.747 203.297 234.266 202.462 233.501 201.954C219.699 192.789 197.379 180.77 159.302 166.963C123.441 153.958 99.112 151.564 79.7683 149.661C75.2278 149.214 70.962 148.794 66.8862 148.271Z" fill="#05255F"/>
<path d="M66.8862 148.271C64.4683 147.96 63.5172 145.036 65.2385 143.31L92.1749 116.299C92.4157 116.058 92.6959 115.859 93.0035 115.712L120.697 102.451C121.811 101.918 122.484 100.757 122.394 99.5256L121.929 93.2106C121.867 92.3701 122.162 91.5424 122.741 90.9299L134.902 78.0621C135.492 77.4376 136.31 77.0942 137.168 77.1304C155.631 77.9095 195.743 82.9742 218.995 97.7169C242.229 112.449 268.876 137.22 280.818 148.689C281.393 149.241 281.716 149.994 281.73 150.791L283.306 243.798C283.346 246.202 280.697 247.651 278.829 246.136C275.368 243.329 271.715 239.626 264.389 232.202L264.384 232.197C262.409 230.196 255.97 220.737 253.201 214.922C252.619 213.701 251.374 212.887 250.026 212.986L238.53 213.831C236.877 213.953 235.439 212.712 235.318 211.059L234.814 204.213C234.747 203.297 234.266 202.462 233.501 201.954C219.699 192.789 197.379 180.77 159.302 166.963C123.441 153.958 99.112 151.564 79.7683 149.661C75.2278 149.214 70.962 148.794 66.8862 148.271Z" fill="white"/>
<path d="M221.846 206.107C222.854 206.556 223.52 207.518 223.601 208.618L224.977 227.335C225.149 229.664 222.721 231.31 220.612 230.307C201.008 220.985 157.573 203.009 128.658 196.78C90.3478 188.527 45.6452 188.131 26.3048 188.972C24.6677 189.043 23.2706 187.811 23.1726 186.175C22.9076 181.75 22.7165 175.189 23.8342 171.25C24.479 168.978 26.403 163.897 28.6626 161.665C29.0542 161.278 29.5919 161.098 30.1409 161.058L65.2774 158.474C65.4203 158.464 65.5559 158.463 65.6989 158.473C82.7729 159.686 123.589 164.942 152.01 176.416C179.333 187.448 208.908 200.344 221.846 206.107Z" fill="#05255F"/>
<path d="M221.846 206.107C222.854 206.556 223.52 207.518 223.601 208.618L224.977 227.335C225.149 229.664 222.721 231.31 220.612 230.307C201.008 220.985 157.573 203.009 128.658 196.78C90.3478 188.527 45.6452 188.131 26.3048 188.972C24.6677 189.043 23.2706 187.811 23.1726 186.175C22.9076 181.75 22.7165 175.189 23.8342 171.25C24.479 168.978 26.403 163.897 28.6626 161.665C29.0542 161.278 29.5919 161.098 30.1409 161.058L65.2774 158.474C65.4203 158.464 65.5559 158.463 65.6989 158.473C82.7729 159.686 123.589 164.942 152.01 176.416C179.333 187.448 208.908 200.344 221.846 206.107Z" fill="white"/>
<path d="M300.179 260.371C287.758 260.412 266.91 266.547 268.713 291.06C270.827 319.814 294.899 317.682 305.149 316.774C305.822 316.714 306.435 316.66 306.978 316.62C316.688 315.906 333.809 307.35 332.326 287.192C330.95 268.485 315.263 260.322 300.179 260.371Z" fill="#05255F"/>
<path d="M300.179 260.371C287.758 260.412 266.91 266.547 268.713 291.06C270.827 319.814 294.899 317.682 305.149 316.774C305.822 316.714 306.435 316.66 306.978 316.62C316.688 315.906 333.809 307.35 332.326 287.192C330.95 268.485 315.263 260.322 300.179 260.371Z" fill="white"/>
</g>
<defs>
<clipPath id="clip0_289_3">
<rect width="358" height="358" fill="white" transform="matrix(-1 0 0 1 358 0)"/>
</clipPath>
</defs>
</svg>
